<svg
  aria-hidden="true"
  style="position:absolute;width:0;height:0"
  xmlns="http://www.w3.org/2000/svg"
  overflow="hidden"
><defs><symbol id="icon-facfoot" viewBox="0 0 32 32"><path
        fill="var(--color1, #fff)"
        d="M21.329 5.313h2.921V.225C23.746.156 22.013 0 19.994 0c-4.212 0-7.097 2.649-7.097 7.519V12H8.249v5.688h4.648V32h5.699V17.689h4.46l.708-5.688h-5.169V8.082c.001-1.644.444-2.769 2.735-2.769z"
      /></symbol><symbol id="icon-instfoot" viewBox="0 0 32 32"><path
        d="M27.406 6.72c-.053-1.214-.25-2.049-.531-2.773a5.57 5.57 0 00-1.322-2.027A5.627 5.627 0 0023.53.603c-.728-.281-1.558-.478-2.773-.531-1.224-.058-1.612-.071-4.715-.071s-3.492.013-4.711.067c-1.214.054-2.049.25-2.773.531a5.57 5.57 0 00-2.027 1.322 5.64 5.64 0 00-1.317 2.023c-.281.728-.478 1.558-.531 2.773-.058 1.224-.072 1.612-.072 4.715s.013 3.492.067 4.711c.054 1.214.25 2.049.531 2.773.29.768.741 1.456 1.322 2.027a5.627 5.627 0 002.023 1.317c.728.281 1.558.478 2.773.531 1.219.054 1.607.067 4.711.067s3.492-.013 4.711-.067c1.215-.053 2.049-.25 2.773-.531a5.847 5.847 0 003.345-3.344c.281-.728.478-1.558.531-2.773.053-1.219.067-1.608.067-4.711s-.005-3.492-.058-4.711zm-2.058 9.332c-.049 1.116-.237 1.719-.393 2.121a3.79 3.79 0 01-2.17 2.17c-.402.156-1.009.344-2.121.393-1.206.054-1.567.067-4.617.067s-3.416-.013-4.617-.067c-1.116-.049-1.719-.236-2.121-.393a3.507 3.507 0 01-1.313-.853 3.547 3.547 0 01-.853-1.313c-.156-.402-.344-1.009-.393-2.121-.054-1.206-.067-1.567-.067-4.617s.013-3.416.067-4.617c.049-1.116.237-1.719.393-2.121.183-.496.473-.947.857-1.313.37-.38.817-.67 1.313-.853.402-.156 1.009-.344 2.121-.393 1.206-.054 1.567-.067 4.617-.067 3.054 0 3.416.013 4.617.067 1.116.049 1.719.237 2.121.393.495.183.947.473 1.313.853.379.371.67.817.853 1.313.156.402.344 1.009.393 2.121.054 1.206.067 1.567.067 4.617s-.013 3.407-.067 4.613z"
      /><path
        fill="var(--color1, #fff)"
        d="M16.042 5.559c-3.242 0-5.872 2.63-5.872 5.872s2.63 5.872 5.872 5.872 5.872-2.63 5.872-5.872-2.63-5.872-5.872-5.872zm0 9.681a3.81 3.81 0 11.002-7.62 3.81 3.81 0 01-.002 7.62zM23.517 5.327a1.371 1.371 0 11-2.742 0 1.371 1.371 0 012.742 0z"
      /></symbol><symbol id="icon-linfoot" viewBox="0 0 32 32"><path
        fill="var(--color1, #fff)"
        d="M31.992 32v-.001H32V20.263c0-5.741-1.236-10.164-7.948-10.164-3.227 0-5.392 1.771-6.276 3.449h-.093v-2.913h-6.364v21.364h6.627V21.42c0-2.785.528-5.479 3.977-5.479 3.399 0 3.449 3.179 3.449 5.657v10.401h6.62zM.528 10.636h6.635V32H.528V10.636zM3.843 0C1.722 0 0 1.721 0 3.843s1.721 3.879 3.843 3.879c2.121 0 3.843-1.757 3.843-3.879A3.846 3.846 0 003.843 0z"
      /></symbol><symbol id="icon-twitfoot" viewBox="0 0 32 32"><path
        fill="var(--color1, #fff)"
        d="M32 6.078c-1.19.522-2.458.868-3.78 1.036a6.523 6.523 0 002.886-3.626 13.11 13.11 0 01-4.16 1.588A6.574 6.574 0 0022.154 3c-3.632 0-6.556 2.948-6.556 6.562 0 .52.044 1.02.152 1.496-5.454-.266-10.28-2.88-13.522-6.862a6.605 6.605 0 00-.898 3.316 6.57 6.57 0 002.914 5.452 6.479 6.479 0 01-2.964-.808v.072c0 3.188 2.274 5.836 5.256 6.446a6.548 6.548 0 01-1.72.216 5.8 5.8 0 01-1.242-.112c.85 2.598 3.262 4.508 6.13 4.57a13.182 13.182 0 01-8.134 2.798c-.538 0-1.054-.024-1.57-.09A18.469 18.469 0 0010.064 29c12.072 0 18.672-10 18.672-18.668 0-.29-.01-.57-.024-.848A13.087 13.087 0 0032 6.078z"
      /></symbol></defs></svg>
