<svg width="55" height="61" viewBox="0 0 55 61" fill="none" xmlns="http://www.w3.org/2000/svg">
<path d="M54.0635 25.7465C53.4347 24.8982 52.5119 24.3523 51.4642 24.2052C50.4118 24.0559 49.3734 24.3323 48.5334 24.9752L45.7952 27.074L45.794 27.0752L41.6428 30.1751L38.6724 28.9921C43.9691 26.6156 47.6711 21.3177 47.6711 15.1669C47.6711 6.80405 40.8401 0 32.4436 0C24.047 0 17.2161 6.80405 17.2161 15.1669C17.2161 18.198 18.1226 21.0166 19.6662 23.3884L13.6204 23.3359C13.6168 23.3359 13.6134 23.3359 13.6099 23.3359C13.5911 23.3359 13.5761 23.3452 13.5586 23.3465C13.4431 23.3511 13.3298 23.3745 13.2191 23.4141C13.1911 23.4247 13.162 23.4305 13.1352 23.4433C13.1212 23.4491 13.1071 23.4502 13.0932 23.4572L6.02075 26.949C6.01952 26.949 6.01843 26.9491 6.01843 26.9501L1.8766 28.9419C1.83107 28.9617 1.78445 28.9885 1.73892 29.0189C0.0880191 30.1178 -0.474314 32.2762 0.429958 34.0402C0.911763 34.9783 1.73195 35.669 2.73999 35.9851C3.12856 36.1063 3.52518 36.1659 3.91949 36.1659C4.55305 36.1659 5.18074 36.0108 5.75578 35.704L8.79154 34.0893L13.7441 31.5319L16.7122 31.5144L4.80844 43.361C4.80735 43.3623 4.80612 43.3623 4.80489 43.3633L1.87647 46.28C1.18466 46.9684 0.8043 47.8818 0.8043 48.8561C0.8043 49.8291 1.18466 50.7449 1.87647 51.4345C2.587 52.1415 3.52149 52.4962 4.45598 52.4962C5.3917 52.4962 6.32495 52.1415 7.03782 51.4345L9.91251 48.5715L13.7206 45.7282L15.6912 47.6906L11.8375 51.5278C11.8364 51.529 11.8352 51.529 11.834 51.5301L8.90556 54.4468C8.21375 55.1352 7.8334 56.0486 7.8334 57.0229C7.8334 57.9959 8.21375 58.9117 8.90556 59.6013C9.6161 60.3083 10.5518 60.6629 11.4863 60.6629C12.4208 60.6629 13.3565 60.3083 14.0681 59.6013L16.9977 56.6846L21.6842 52.0179C21.6854 52.0167 21.6854 52.0156 21.6865 52.0144L23.8951 49.8268L23.8869 49.8186C23.9008 49.8047 23.9207 49.7999 23.9347 49.7849L35.2353 37.4075L42.8281 38.4879C42.8829 38.4961 42.9377 38.4995 42.9925 38.4995C43.1338 38.4995 43.2702 38.4657 43.402 38.4156C43.4406 38.4016 43.4743 38.3829 43.5106 38.3643C43.5526 38.3432 43.5968 38.3316 43.6366 38.3048L50.6659 33.6381C50.6916 33.6206 50.7055 33.5926 50.73 33.574C50.758 33.5518 50.793 33.5426 50.8186 33.5179L53.5999 30.9127C55.0471 29.5567 55.2466 27.3354 54.0635 25.7465ZM4.66024 33.6448C4.28111 33.8478 3.85058 33.8886 3.43878 33.758C3.03039 33.6309 2.69912 33.352 2.50538 32.9752C2.15305 32.2891 2.35718 31.4537 2.97433 31.0023L5.84793 29.6198L6.53974 31.6416L6.83027 32.4909L4.66024 33.6448ZM12.3102 29.6467L8.92333 31.3967L8.36456 29.7633L7.96328 28.5896L12.3967 26.4008L12.3102 29.6467ZM45.3402 15.1645C45.3402 17.1735 44.8607 19.0683 44.03 20.7634L34.8832 16.6089C34.7875 15.3547 34.1366 14.2568 33.1589 13.5731L36.3614 2.94114C41.5626 4.5956 45.3402 9.44782 45.3402 15.1645ZM19.5519 15.1645C19.5519 8.08854 25.3363 2.33095 32.446 2.33095C32.9991 2.33095 33.5403 2.37758 34.0759 2.44525L30.9433 12.844C30.9014 12.8427 30.8617 12.8311 30.8185 12.8311C28.5597 12.8311 26.7222 14.6628 26.7222 16.9146C26.7222 19.1662 28.5597 20.998 30.8185 20.998C32.3375 20.998 33.65 20.1592 34.3582 18.9317L42.8073 22.7702C40.4564 25.9342 36.6938 27.9981 32.4459 27.9981C25.3363 27.9981 19.5519 22.2405 19.5519 15.1645ZM32.5814 16.9146C32.5814 17.8794 31.7903 18.6646 30.8185 18.6646C29.8467 18.6646 29.0556 17.8794 29.0556 16.9146C29.0556 15.9497 29.8467 15.1645 30.8185 15.1645C31.7903 15.1645 32.5814 15.9497 32.5814 16.9146ZM5.39183 49.7801C4.87503 50.2922 4.03843 50.2911 3.52286 49.7813C3.2743 49.5327 3.13785 49.205 3.13785 48.8561C3.13785 48.5084 3.2743 48.1806 3.52286 47.9345L5.6274 45.8379L7.48941 47.6918L5.39183 49.7801ZM12.4222 57.9469C11.9054 58.4591 11.0677 58.4603 10.552 57.9482C10.3034 57.6996 10.1669 57.3719 10.1669 57.023C10.1669 56.6753 10.3034 56.3475 10.552 56.1014L12.6579 54.0037L13.5388 54.8799L14.5211 55.8576L12.4222 57.9469ZM20.0383 50.3588C20.0371 50.3599 20.036 50.3599 20.0348 50.3611L16.1742 54.2112L15.2933 53.3349L14.311 52.3573L18.168 48.5177C18.168 48.5177 18.168 48.5177 18.168 48.5166C18.1692 48.5154 18.1703 48.5154 18.1715 48.5143C18.259 48.4268 18.3139 48.3218 18.3676 48.218C18.3828 48.1877 18.4119 48.162 18.4248 48.1305C18.461 48.0407 18.4667 47.9439 18.4808 47.8493C18.4878 47.7956 18.5112 47.7455 18.5112 47.6906C18.5112 47.6124 18.4831 47.5366 18.4669 47.4595C18.4529 47.3895 18.4529 47.3183 18.426 47.2507C18.3817 47.1411 18.3058 47.0443 18.2265 46.9497C18.2044 46.924 18.1962 46.8913 18.1717 46.8668C18.1717 46.8668 18.1717 46.8668 18.1705 46.8668C18.1692 46.8657 18.1692 46.8633 18.1681 46.8622L14.6529 43.3621C14.6156 43.3248 14.5677 43.3096 14.5257 43.2782C14.464 43.2303 14.4045 43.186 14.3356 43.1521C14.2691 43.1194 14.2014 43.0996 14.1314 43.0809C14.0568 43.0598 13.9845 43.0436 13.9063 43.0377C13.835 43.033 13.7686 43.04 13.6975 43.0482C13.6193 43.0575 13.5459 43.068 13.47 43.0925C13.3964 43.1159 13.3312 43.152 13.2635 43.1905C13.2203 43.215 13.1714 43.2232 13.1305 43.2536L9.25133 46.1493L7.28077 44.187L12.5285 38.9672L22.0674 48.3486L20.0383 50.3588ZM34.9544 35.0098C34.9207 35.0052 34.8891 35.018 34.8553 35.0157C34.7701 35.0111 34.6885 35.0169 34.6034 35.0309C34.5369 35.0425 34.4739 35.0554 34.4108 35.0775C34.3362 35.1032 34.2685 35.1382 34.1996 35.1802C34.1343 35.2198 34.0748 35.2618 34.0176 35.3143C33.9896 35.3388 33.9558 35.3505 33.9301 35.3784L23.6527 46.6347L14.185 37.3233L20.3825 31.1585C20.8387 30.7035 20.841 29.965 20.386 29.5076C20.1562 29.2778 19.854 29.1646 19.5519 29.1658V29.1647L14.6984 29.1939L14.7591 25.6775L21.5492 25.7359C24.3166 28.5663 28.176 30.3315 32.446 30.3315C33.4027 30.3315 34.3361 30.2324 35.2448 30.0631C35.3323 30.1331 35.4186 30.2044 35.5284 30.2487L40.7995 32.3487L41.1331 34.0077L41.5228 35.9443L34.9544 35.0098ZM43.7944 35.3995L43.1096 31.9916L46.2736 29.6291L47.102 30.728L48.3445 32.3777L43.7944 35.3995ZM52.0055 29.2067L50.1726 30.9241L48.1356 28.2197L49.9544 26.8256C50.2938 26.5643 50.7221 26.4581 51.1421 26.5129C51.5644 26.5724 51.9378 26.7929 52.1921 27.1347C52.6658 27.7729 52.5853 28.6631 52.0055 29.2067Z" fill="#212121"/>
</svg>
